#!OML:ASF F:\VICON\USERDATA\INSTALL\rory3\rory3.ASF
:FULLY-SPECIFIED
:DEGREES
355
root -0.242452 18.2217 -22.6836 -141.29 -35.3573 -199.803
lowerback -13.5572 -5.29562 -4.7787
upperback -15.7795 -9.80581 -3.25419
thorax -9.63429 -5.87281 -1.17746
lowerneck -19.3421 -5.45987 -12.4247
upperneck -16.4156 -8.153 0.812555
head -1.81957 -4.56491 2.03896
rclavicle 8.54774e-015 -4.01545e-014
rhumerus -22.1031 -11.3056 9.93291
rradius 12.4503
rwrist 57.5804
rhand -17.0203 25.2021
rfingers 7.12502
rthumb 9.2158 -4.57648
lclavicle 8.54774e-015 -4.01545e-014
lhumerus 25.9867 -60.94 -27.5796
lradius 23.5303
lwrist -31.7169
lhand -15.8106 3.83854
lfingers 7.12502
lthumb 10.3829 33.5622
rfemur -49.3534 27.2713 -15.0854
rtibia 34.9917
rfoot -65.2261 -18.9955
rtoes 58.2125
lfemur -0.0969013 -4.71316 -7.40466
ltibia 32.8313
lfoot 28.4217 37.0491
ltoes 12.808
356
root -0.222661 18.2776 -22.8654 -140.225 -34.0847 -200.94
lowerback -13.9725 -4.95649 -6.2346
upperback -16.0467 -9.46506 -3.88962
thorax -9.69498 -5.68198 -1.08034
lowerneck -19.8929 -5.59376 -13.2549
upperneck -18.3913 -8.7027 0.945773
head -2.41336 -4.86313 2.25323
rclavicle 6.69904e-014 1.82882e-014
rhumerus -23.6448 -19.7134 15.7938
rradius 12.2657
rwrist 64.1808
rhand -16.1696 23.8212
rfingers 7.12502
rthumb 10.0366 -5.91948
lclavicle 6.69904e-014 1.82882e-014
lhumerus 25.7112 -58.8866 -28.1546
lradius 22.5446
lwrist -30.6715
lhand -11.7827 6.21702
lfingers 7.12502
lthumb 14.2664 35.707
rfemur -49.1849 27.0179 -16.2159
rtibia 34.2715
rfoot -65.6994 -12.7297
rtoes 60.5137
lfemur 1.9115 -4.40507 -7.08547
ltibia 33.2042
lfoot 33.7883 34.2298
ltoes 12.7494
357
root -0.268175 18.386 -22.9736 -140.897 -35.2514 -200.216
lowerback -14.3277 -5.05003 -4.08
upperback -15.9272 -9.69272 -3.99183
thorax -9.66215 -6.02554 -2.40257
lowerneck -20.0881 -5.05921 -13.3075
upperneck -20.7388 -8.56268 1.22612
head -2.93168 -4.8536 2.32405
rclavicle -3.50855e-014 1.74931e-014
rhumerus -22.8819 -10.4305 14.3351
rradius 13.2984
rwrist 51.6527
rhand -13.9326 19.4552
rfingers 7.12502
rthumb 12.1941 -10.1694
lclavicle -3.50855e-014 1.74931e-014
lhumerus 21.8796 -55.4893 -25.9026
lradius 21.8476
lwrist -31.1568
lhand -7.32035 8.79197
lfingers 7.12502
lthumb 18.5627 37.9263
rfemur -46.9605 24.7629 -12.8816
rtibia 33.5554
rfoot -63.2026 -13.3572
rtoes 60.6172
lfemur 4.52993 -4.58295 -3.97157
ltibia 33.4247
lfoot 34.7011 32.8815
ltoes 10.6446
358
root -0.250089 18.4439 -23.1361 -139.469 -33.683 -201.872
lowerback -15.8182 -5.41223 -6.506
upperback -15.9903 -10.0852 -4.43253
thorax -8.74716 -6.14152 -1.81217
lowerneck -20.5906 -4.52122 -13.2128
upperneck -22.5392 -8.41417 1.2521
head -3.46949 -4.85966 2.38876
rclavicle -4.4975e-014 -8.34896e-015
rhumerus -22.2611 -8.44876 15.1188
rradius 13.5655
rwrist 46.7815
rhand -12.1003 16.0147
rfingers 7.12502
rthumb 13.9603 -13.4966
lclavicle -4.4975e-014 -8.34896e-015
lhumerus 18.3534 -51.5119 -23.9231
lradius 21.5523
lwrist -31.5785
lhand -2.92916 11.7439
lfingers 7.12502
lthumb 22.7819 40.4187
rfemur -46.5987 23.2121 -13.901
rtibia 32.8595
rfoot -61.7474 -9.51282
rtoes 61.8545
lfemur 6.53388 -4.33711 -4.34493
ltibia 33.5334
lfoot 34.6497 33.5356
ltoes 11.8224
359
root -0.221544 18.5 -23.3113 -137.765 -31.6103 -203.853
lowerback -16.7187 -5.2839 -9.30922
upperback -16.2481 -9.90397 -5.2194
thorax -8.46893 -5.97941 -1.24471
lowerneck -21.2665 -4.67794 -13.7424
upperneck -24.0193 -9.09231 0.997507
head -3.86233 -5.2193 2.40648
rclavicle -6.32135e-014 3.75703e-014
rhumerus -22.8011 -15.637 19.8026
rradius 13.0863
rwrist 52.1527
rhand -10.6136 14.0964
rfingers 7.12502
rthumb 15.3927 -15.3105
lclavicle -6.32135e-014 3.75703e-014
lhumerus 17.1924 -47.0176 -22.9477
lradius 21.4161
lwrist -32.2208
lhand 1.2106 14.7244
lfingers 7.12502
lthumb 26.7494 42.8534
rfemur -47.2679 24.2011 -17.359
rtibia 32.2253
rfoot -62.4966 -9.60232
rtoes 61.9807
lfemur 8.28628 -3.91049 -5.32677
ltibia 33.726
lfoot 35.0423 34.2414
ltoes 14.0433
360
root -0.22112 18.576 -23.4607 -137.205 -31.2013 -204.264
lowerback -17.7179 -5.42324 -9.76221
upperback -16.2611 -10.0459 -5.49807
thorax -7.99518 -6.11571 -1.45552
lowerneck -22.3853 -4.44176 -13.7416
upperneck -24.939 -9.14133 0.847457
head -4.05624 -5.32118 2.36428
rclavicle -3.4191e-014 1.01181e-013
rhumerus -23.0286 -22.2288 23.5224
rradius 12.8296
rwrist 56.6747
rhand -9.11651 12.3182
rfingers 7.12502
rthumb 16.8343 -16.972
lclavicle -3.4191e-014 1.01181e-013
lhumerus 15.833 -42.571 -22.141
lradius 20.6257
lwrist -33.1306
lhand 4.79954 17.422
lfingers 7.12502
lthumb 30.1788 44.9768
rfemur -46.9344 24.4113 -17.7929
rtibia 31.5321
rfoot -62.4982 -10.6625
rtoes 61.8666
lfemur 10.2287 -3.53434 -3.92391
ltibia 33.9271
lfoot 34.3566 35.4862
ltoes 20.3533
361
root -0.19872 18.6099 -23.604 -136.074 -30.3363 -205.08
lowerback -17.8666 -4.8246 -10.6018
upperback -16.6724 -9.48902 -6.26793
thorax -8.55194 -5.903 -1.73793
lowerneck -24.4691 -5.57884 -16.0411
upperneck -24.1401 -9.61723 2.0793
head -3.43577 -5.44933 2.96746
rclavicle 4.17199e-014 -7.45443e-015
rhumerus -23.5923 -11.9429 23.5526
rradius 13.961
rwrist 44.8018
rhand -7.18702 8.57702
rfingers 7.12502
rthumb 18.6909 -20.545
lclavicle 4.17199e-014 -7.45443e-015
lhumerus 18.0302 -40.1939 -23.186
lradius 19.7531
lwrist -31.5082
lhand 8.2902 20.6015
lfingers 7.12502
lthumb 33.5029 47.4942
rfemur -47.2986 25.0496 -19.5285
rtibia 30.7924
rfoot -63.7496 -6.39487
rtoes 62.7483
lfemur 11.6531 -3.02839 -2.9564
ltibia 34.2703
lfoot 35.5121 35.0648
ltoes 21.5463
362
root -0.210105 18.6956 -23.7286 -135.493 -30.5111 -205.576
lowerback -19.0416 -5.12583 -10.569
upperback -16.5711 -9.81299 -6.55872
thorax -7.90524 -6.18189 -2.27804
lowerneck -26.0624 -5.77447 -17.5347
upperneck -24.3528 -9.21086 3.83504
head -3.23722 -5.20751 3.74272
rclavicle -9.37456e-014 -4.23536e-014
rhumerus -23.1698 -15.8506 26.0222
rradius 13.6359
rwrist 46.8921
rhand -5.18647 6.34735
rfingers 7.12502
rthumb 20.6142 -22.578
lclavicle -9.37456e-014 -4.23536e-014
lhumerus 17.0184 -35.828 -22.6993
lradius 19.1796
lwrist -32.8134
lhand 11.8854 23.0969
lfingers 7.12502
lthumb 36.9123 49.184
rfemur -46.3957 24.9879 -19.6212
rtibia 29.8492
rfoot -64.2827 -3.33449
rtoes 63.273
lfemur 13.179 -3.07387 -1.15604
ltibia 34.7305
lfoot 38.476 32.3585
ltoes 15.9034
363
root -0.202603 18.7639 -23.8638 -134.431 -29.6514 -206.853
lowerback -20.3913 -5.65342 -12.095
upperback -16.4471 -10.2664 -6.90723
thorax -7.0394 -6.43013 -2.12762
lowerneck -24.9172 -4.33346 -15.651
upperneck -28.224 -9.71768 1.57121
head -4.84441 -5.62418 2.95422
rclavicle -2.63887e-014 -1.15047e-013
rhumerus -22.2494 -15.5356 26.7907
rradius 13.4905
rwrist 44.6379
rhand -3.11424 3.30485
rfingers 7.12502
rthumb 22.6043 -25.3916
lclavicle -2.63887e-014 -1.15047e-013
lhumerus 15.026 -29.6196 -21.4675
lradius 19.0158
lwrist -37.0556
lhand 15.147 24.8308
lfingers 7.12502
lthumb 39.99 50.0599
rfemur -45.9167 25.0017 -21.1376
rtibia 28.8828
rfoot -64.7293 -1.94856
rtoes 63.5525
lfemur 14.5789 -3.07967 -0.738188
ltibia 35.2291
lfoot 39.2326 31.9198
ltoes 13.1073
